HIERARCHY
ROOT SpineBase
{
  OFFSET 0.000000 0.000000 0.000000
  CHANNELS 6 Xposition Yposition Zposition Zrotation Xrotation Yrotation
  JOINT SpineMid
  {
    OFFSET 0.000000 27.242837 0.000000
    CHANNELS 3 Zrotation Xrotation Yrotation
    JOINT SpineShoulder
    {
      OFFSET 0.485966 20.549224 -0.532384
      CHANNELS 3 Zrotation Xrotation Yrotation
      JOINT Neck
      {
        OFFSET 0.112285 6.932083 -0.427957
        CHANNELS 3 Zrotation Xrotation Yrotation
        JOINT Head
        {
          OFFSET 2.186311 14.179908 0.955603
          CHANNELS 3 Zrotation Xrotation Yrotation
          End Site
          {
            OFFSET 0 0 0
          }
        }
      }
      JOINT ShoulderLeft
      {
        OFFSET -9.657169 1.114664 -9.965758
        CHANNELS 3 Zrotation Xrotation Yrotation
        JOINT ElbowLeft
        {
          OFFSET 1.651208 -18.456992 -8.729334
          CHANNELS 3 Zrotation Xrotation Yrotation
          JOINT WristLeft
          {
            OFFSET 14.923886 -13.028586 -5.310168
            CHANNELS 3 Zrotation Xrotation Yrotation
            JOINT HandLeft
            {
              OFFSET 0.986392 -3.539955 0.832840
              CHANNELS 3 Zrotation Xrotation Yrotation
              JOINT HandTipLeft
              {
                OFFSET 4.569409 -3.333412 -0.574870
                CHANNELS 3 Zrotation Xrotation Yrotation
                End Site
                {
                  OFFSET 0 0 0
                }
              }
              JOINT ThumbLeft
              {
                OFFSET 2.999251 1.147040 1.204760
                CHANNELS 3 Zrotation Xrotation Yrotation
                End Site
                {
                  OFFSET 0 0 0
                }
              }
            }
          }
        }
      }
      JOINT ShoulderRight
      {
        OFFSET 13.984320 -2.161359 7.734335
        CHANNELS 3 Zrotation Xrotation Yrotation
        JOINT ElbowRight
        {
          OFFSET 9.000632 -19.156557 -2.651092
          CHANNELS 3 Zrotation Xrotation Yrotation
          JOINT WristRight
          {
            OFFSET 7.031076 -10.866590 -18.962171
            CHANNELS 3 Zrotation Xrotation Yrotation
            JOINT HandRight
            {
              OFFSET 2.699156 -3.284527 -5.507576
              CHANNELS 3 Zrotation Xrotation Yrotation
              JOINT HandTipRight
              {
                OFFSET 2.920176 -4.036356 -4.274371
                CHANNELS 3 Zrotation Xrotation Yrotation
                End Site
                {
                  OFFSET 0 0 0
                }
              }
              JOINT ThumbRight
              {
                OFFSET -4.073887 -0.609865 -1.334287
                CHANNELS 3 Zrotation Xrotation Yrotation
                End Site
                {
                  OFFSET 0 0 0
                }
              }
            }
          }
        }
      }
    }
  }
  JOINT HipLeft
  {
    OFFSET -5.878852 2.299384 -7.381223
    CHANNELS 3 Zrotation Xrotation Yrotation
    JOINT KneeLeft
    {
      OFFSET 15.656949 7.740592 -34.035862
      CHANNELS 3 Zrotation Xrotation Yrotation
      JOINT AnkleLeft
      {
        OFFSET 5.607007 -29.309816 -6.175642
        CHANNELS 3 Zrotation Xrotation Yrotation
        JOINT FootLeft
        {
          OFFSET 6.448466 -1.521541 -11.285642
          CHANNELS 3 Zrotation Xrotation Yrotation
          End Site
          {
            OFFSET 0 0 0
          }
        }
      }
    }
  }
  JOINT HipRight
  {
    OFFSET 7.082738 1.232542 1.622549
    CHANNELS 3 Zrotation Xrotation Yrotation
    JOINT KneeRight
    {
      OFFSET 27.790489 6.063672 -18.377249
      CHANNELS 3 Zrotation Xrotation Yrotation
      JOINT AnkleRight
      {
        OFFSET 1.005036 -30.219257 -13.537304
        CHANNELS 3 Zrotation Xrotation Yrotation
        JOINT FootRight
        {
          OFFSET 5.563881 -3.953836 -7.559622
          CHANNELS 3 Zrotation Xrotation Yrotation
          End Site
          {
            OFFSET 0 0 0
          }
        }
      }
    }
  }
}
MOTION
Frames: 5
Frame Time: 0.033333
-68.392640 28.784204 346.565942 -1.179000 2.115459 -32.197757 0.968074 -0.024766 32.182089 -0.926839 -0.441973 -0.069498 -15.757492 18.563771 0.816673 0.000000 0.000000 0.000000 -12.519781 8.086696 8.122265 21.374401 -12.415942 -8.298556 -30.354842 -13.336606 -7.427563 23.808513 15.998229 5.359417 0.000000 0.000000 0.000000 0.000000 0.000000 0.000000 98.528831 11.865412 -15.445214 -168.517284 47.947646 110.847813 -90.933786 5.654738 -47.078625 128.314686 40.347298 -10.137803 0.000000 0.000000 0.000000 0.000000 0.000000 0.000000 2.990177 -4.074583 34.314403 0.335913 5.513096 -1.375220 0.655066 -2.604264 -0.623719 0.000000 0.000000 0.000000 -0.362226 -7.682292 33.826423 5.707066 4.018819 -1.977877 6.430913 15.215469 6.265786 0.000000 0.000000 0.000000
-68.384866 28.806171 346.582559 -1.266608 2.085081 -31.999246 0.966700 -0.080690 31.982433 -0.937683 -0.426326 -0.074989 -15.691913 19.416448 0.850900 0.000000 0.000000 0.000000 -11.532497 6.979976 7.489418 18.739318 -11.147898 -8.210282 -26.889183 -10.553887 -5.954870 14.524954 16.406028 13.992044 0.000000 0.000000 0.000000 0.000000 0.000000 0.000000 101.111960 10.600262 -15.555586 -166.527214 30.746021 107.295661 -38.970645 -13.334000 -34.990127 71.480333 37.333723 10.201027 0.000000 0.000000 0.000000 0.000000 0.000000 0.000000 3.031756 -4.007595 34.107998 0.223455 5.418829 -1.355568 0.763180 -2.512946 -0.626966 0.000000 0.000000 0.000000 -0.292325 -7.505338 33.604913 6.349542 4.329380 -2.302731 5.637775 14.783723 6.535120 0.000000 0.000000 0.000000
-68.379038 28.814955 346.599935 -1.289733 2.017953 -31.679222 1.015260 -0.123846 31.664577 -0.916232 -0.429258 -0.073265 -15.700562 20.135246 0.877864 0.000000 0.000000 0.000000 -11.352522 6.755176 7.347752 16.884647 -11.518003 -8.888093 -22.352223 -6.600348 -2.819080 14.244264 8.156904 5.402828 0.000000 0.000000 0.000000 0.000000 0.000000 0.000000 101.879356 10.250993 -15.720994 -163.018818 13.426426 103.517580 25.096579 -26.336326 -14.135132 12.657550 35.606164 21.862683 0.000000 0.000000 0.000000 0.000000 0.000000 0.000000 2.982918 -3.962971 33.734682 0.061639 5.284357 -1.286536 0.929327 -2.374010 -0.632549 0.000000 0.000000 0.000000 -0.299384 -7.312173 33.272361 6.310431 4.170062 -2.317783 5.579339 14.811468 6.469443 0.000000 0.000000 0.000000
-68.382377 28.814412 346.624772 -1.311215 1.934519 -31.350632 1.055140 -0.156148 31.337895 -0.900334 -0.444470 -0.071935 -15.625415 20.697026 0.890624 0.000000 0.000000 0.000000 -11.238979 6.636938 7.261854 14.946774 -12.527812 -10.197353 -16.768833 2.923572 3.147780 10.104029 -4.515496 -2.243725 0.000000 0.000000 0.000000 0.000000 0.000000 0.000000 97.806156 10.263675 -14.927365 -157.114402 1.112005 102.507198 64.193033 -26.252509 -0.849331 -21.924304 36.008077 28.361192 0.000000 0.000000 0.000000 0.000000 0.000000 0.000000 2.928758 -3.847870 33.404576 0.028823 5.122387 -1.310258 0.938144 -2.256379 -0.612478 0.000000 0.000000 0.000000 -0.349972 -7.212775 32.979815 6.323666 4.119610 -2.371293 5.556396 14.798034 6.405821 0.000000 0.000000 0.000000
-68.397510 28.804283 346.654479 -1.329432 1.853060 -31.038152 1.074586 -0.142929 31.026518 -0.890805 -0.434690 -0.070862 -15.382264 20.985993 0.842084 0.000000 0.000000 0.000000 -11.263411 6.687746 7.273270 13.021438 -13.939634 -11.770688 -10.199552 15.201165 9.613498 3.269642 -18.134702 -10.965040 0.000000 0.000000 0.000000 0.000000 0.000000 0.000000 92.700695 10.334001 -13.866447 -150.711914 -8.468762 102.335186 86.251311 -22.921234 5.566550 -32.080788 32.544338 24.863930 0.000000 0.000000 0.000000 0.000000 0.000000 0.000000 2.867629 -3.697488 33.078151 -0.059787 4.982452 -1.299054 0.988098 -2.195639 -0.610797 0.000000 0.000000 0.000000 -0.426870 -7.203850 32.747862 6.359529 4.176746 -2.450067 5.572484 14.757029 6.378689 0.000000 0.000000 0.000000
